<svg xmlns="http://www.w3.org/2000/svg" xmlns:xlink="http://www.w3.org/1999/xlink" viewBox="0 0 1367 742.65"><defs><style>.cls-1{fill:url(#Orchidej);}</style><linearGradient id="Orchidej" y1="371.33" x2="1367" y2="371.33" gradientUnits="userSpaceOnUse"><stop offset="0" stop-color="#ff7bac"/><stop offset="0.22" stop-color="#ff7bac" stop-opacity="0.76"/><stop offset="0.6" stop-color="#ff7bac" stop-opacity="0.36"/><stop offset="0.87" stop-color="#ff7bac" stop-opacity="0.1"/><stop offset="1" stop-color="#ff7bac" stop-opacity="0"/></linearGradient></defs><g id="Vrstva_2" data-name="Vrstva 2"><g id="Vrstva_1-2" data-name="Vrstva 1"><path class="cls-1" d="M259.75,742.65C304.69,703.45,356.85,681,412.5,681s107.81,22.45,152.75,61.65C610.19,703.45,662.35,681,718,681s107.81,22.45,152.75,61.65c44.94-39.2,97.1-61.65,152.75-61.65s107.81,22.45,152.75,61.65c34.39-30,73.25-50.26,115.15-58.1a204.21,204.21,0,0,1,75.6,0V0H503c-15.78,130.21-97.32,241.56-214,290C148.44,348.35,20.56,289,0,279V710.06C33.3,691.28,69.35,681,107,681,162.65,681,214.81,703.45,259.75,742.65Z"/></g></g></svg>