<svg xmlns="http://www.w3.org/2000/svg" viewBox="0 0 172.84 127.62"><defs><style>.cls-1{fill:#2f5ad3;}.cls-2{fill:#1d1d1b;}.cls-3{font-size:62.65px;fill:#ff2efb;stroke:#000;stroke-miterlimit:10;font-family:KumarOne-Regular, Kumar One;}</style></defs><g id="Vrstva_2" data-name="Vrstva 2"><g id="Vrstva_1-2" data-name="Vrstva 1"><rect class="cls-1" x="32.13" y="9.62" width="116.22" height="96.07"/><path class="cls-2" d="M60.27,98.35c-.18,0-.27,0,0,0Z"/><path class="cls-2" d="M139.55,54.47c0-.06,0-.09,0-.14a4.27,4.27,0,0,1-.5-.28Z"/><path class="cls-2" d="M140.79,32.06l.06-.14C140.73,31.93,140.61,31.91,140.79,32.06Z"/><path class="cls-2" d="M141.3,98.75c-.07,0-.05,0,0,.1S141.27,98.77,141.3,98.75Z"/><path class="cls-2" d="M38.4,92.77l0,.1c0-.08.07-.16.12-.24Z"/><path class="cls-2" d="M38.74,93.22c-.15.5-.28-.13-.32-.35a2.29,2.29,0,0,0-.17,1.64C38.56,94.51,38.51,93.47,38.74,93.22Z"/><path class="cls-2" d="M37.54,18.29l.13.22A.67.67,0,0,0,37.54,18.29Z"/><path class="cls-2" d="M156.57,110.58l.07.69A2.07,2.07,0,0,0,156.57,110.58Z"/><path class="cls-2" d="M37.24,30l.49.13A.89.89,0,0,0,37.24,30Z"/><path class="cls-2" d="M139,54.05l-.19-.16A1.12,1.12,0,0,0,139,54.05Z"/><path class="cls-2" d="M141.11,17.28a3.17,3.17,0,0,0,.37-.34v0Z"/><path class="cls-2" d="M45.74,9.06a.67.67,0,0,0,0,.19l.42-.34A1.08,1.08,0,0,0,45.74,9.06Z"/><path class="cls-2" d="M121.69,14.73c0,.06-.09.11-.09.17a15.05,15.05,0,0,0,3.4.18l.1-.6Z"/><path class="cls-2" d="M90.64.71l3,1.21c-9.71.56-14.25-.66-22.56.32L71.56,2c-1.21-.28-1.89,2.43-15.27-.89V1c-.46,0-.46.27-1.39-.06l2.32.75a22.1,22.1,0,0,1-4.45,1A.76.76,0,0,1,52.21,2l-4.53.21-1.39-.79c-1.38.43-.75,2.08-4.45,1.16,1.39,1.14-1.84.68-1.38,1.27-.19-.14-.61-.36-1-.55-2.2.13-6.35.45-7.37,1,0,0,8.61,2.41,10.93,3.63-3.1-.31-.82.14-.2.53l.2-.29c1.86.28,1.86,1,2.79,1.21a.68.68,0,0,0-.06-.21l-.11.1c-.09-.13,0-.21.06-.29s.06-.27.57-.23l-.1.08a13.93,13.93,0,0,1,2.7.06v.6c1.38-1.15,9.26,1.75,11.1,1.79,1.86.76,4.16-.19,6.48.19,3.7.2,1.85.88,3.71,1.4,2.31.38-.47-.7.46-.74l2.77.84c-1.61.07-.74.44-.44.67,2.4.1,6.18,1.21,6.92,0,3.24.58,3.25,1.06,4.63,1.12-.46-.22-1.38-.42-1.39-.66,1.3.53.62-.13.09-.25,2-.52,10.26,2.2,10.68.87V15c.46-1-.28-1.94,1.1-2.48L96,13l1.39-.42c.93.32.47.58.47.7,2.26-.46,5.42.09,8.16.22l-2.9-2.68c2.31.62,6.47,1.87,6.94,1l1.38.9c4.64,1.72,3.24-.75,5.09-.23l2.32,1-2.31,0a35.69,35.69,0,0,1,5.09,1.46l0,0c-.13,0-.21-.09-.23-.15l.32,0c.28-.49,1.49-.82,3.12-.79,2.32.14,4.13-.59,7.83.45l.92-1,2.78.6v.79c-2.72,0-7.84.26-11.34.3l-.06.37c2.07,0,4.43-.36,5.8-.28.67.16,2.38,1,1.14,1.53l1.28-.78c7.42-.09,6.16-.13,7.85.78.06-.14.12-.27.17-.4a4.14,4.14,0,0,1,.71-.23c.06.2,0,.48-.41.87a5.26,5.26,0,0,1-.49,1.9,2.33,2.33,0,0,1-.22.35l0,0v.08l0,.18-.07.35-.14.68a19.35,19.35,0,0,1-.66,2.39l.94.62c-.05.92-1.48,2.29-.16,2.73l.42,2c-.07,1.25.46,2-.08,3.45h0c0,.09-.07.18-.11.27h.08c-.42,2.83.84,0,.3,3.21-.67,1,1.2,1.15,1,2.74l-1.35,1.58c-.78,2.87.58,3.36.58,7.51-.48,2-1.63,2.95-2.65,1.63,1.23,1.82.8.83,1.4,3.24-.51.37-.62.11-1.08-.42-.6,2.14.46,1.32.43,2.93,1,.47,2.49,1,2.55,1.53l.3-.62a10.45,10.45,0,0,1,.27,5.55l-.48-.07.24,2.11-.61.13.19,3,.16-.41a15.46,15.46,0,0,1,0,4.36l-.35-.05c-1.07,3.75.34,6.84.45,11.24l-.7-.58c-.7,1.5,1.08.41.73,2.19l-.86.09c1.13,1.57-.24,2-.67,3.12l1.13-.51-.24,2c-.37,2.24-1.42,1.37-2,1L140.5,90l-1,.3c1.16,1.12-.19,1.12.43,3.08-.37.16-.59-.34-.75.33l.7,1.61a7.83,7.83,0,0,0,.35.75,1.58,1.58,0,0,1,.35.16l-.15-.1-.08,0s-.05,0-.08-.12L140,95l1.46.23a6.7,6.7,0,0,1,.31.71.43.43,0,0,0,.08.19.2.2,0,0,1,.05.09.33.33,0,0,1-.06.32c-.13.18-.34.27-.14.55a4.12,4.12,0,0,0-.43-.41c.35.75-.26.57-.59.61.27.1.68.14.87.53s-.52-.23-.68-.2c.78.57,1.26,1.34,1.19,1.72a1.85,1.85,0,0,1-.47-.16c-.11-.14-.22-.27-.28-.36,0,.16.17.4-.23.17-.24-.36-.49-.72-.76-1.07a5,5,0,0,1,.45,1c-.42-.29-.4.49-.72-.24,0-.07,0-.14,0-.22l-.86-.13-.4-.06-1.58-.07-.09-.86c-.66,1.19-3.62-.45-3.4,1-1.25-.8-4.93.57-4.19-1.1-4.36-.12-6.71,1.48-12,.67-1.89-1.42-7.06-1-10.46-1.11-6.64.59-10.94,1.13-17.73,1.58-4.09-2-10.2.68-14.59-.44l-1.21.79c-2.92-1.25-7.38.28-11.48-.94a10.2,10.2,0,0,1-1.77.48.75.75,0,0,1,.56.68c-1.17-.35-3.54.09-3.37-.9l.3-.1c.17-1-3.56.46-4.86-.4l.71,1.06-2.21-.18.59-.2a30,30,0,0,1-5.67.85c-.86,0-1.67,0-2.47,0l-1.17-.05-.58,0-.44,0c-.47-.11-.85-.26-1.23-.33a3.15,3.15,0,0,0-1.5.15,3,3,0,0,0-.57-.54c.58-.2.43-.23.29-.34s-.27-.32.37-.63c.8-.68.71-.74.37-1l-.29-.17-.16-.09-.08-.06a1.14,1.14,0,0,1-.09-.16,8.87,8.87,0,0,1-.52-1.43.29.29,0,0,1-.23-.13l.15-3.27c1.61,2-1.34-2.35,0-.56,1.2-8.52,0-19.65.53-29.52l-.41.43c.08-2.5-.42-5.61.24-7.51s-1.05-4.16-1.12-4.9c-.71-2.08.71-4,.63-3.08-.19-2.22-1.66-4.32-1-7.41,1.36-1.05-1.34-8.42.2-8.52l-.13,0c1.08-4-.76-7.69.22-12a1,1,0,0,1,.21.23L32.88,9.62l-5.13,2.47L23.59,19.6,24.49,40,22.86,56.23l.55,39.56a2.45,2.45,0,0,1,.15.4l.14.66L24,98.14l.58,2.46a109.69,109.69,0,0,0-.85,13.5c5.79.07,12.09-.11,18-.19a49.63,49.63,0,0,1,9.44.47l.17-1c2.36-.06,2.2.56,2.78.73,22-.22,44.58-1.55,64.34-.29,1.91.66,7.7.27,9.2,1a68.1,68.1,0,0,1,9.82-1l1.24,0,2.24,0,4.52,0,9,0-.35.11,2.28-.08-.11-3.3c.08-.17.2-.1.28.14A73.66,73.66,0,0,1,156.28,99l.06-1.57,0-.79c0-.25,0-.6,0-.69l.17-1.73c.11-1.15.23-2.27.33-3.31l.11.24c.18-24.39-1.68-47-.29-71.23l.09-.62c0-.06,0-.31,0-.5l0-.59c0-.79.09-1.6.14-2.4.08-1.62.14-3.28.19-5,.09-3.36.13-6.8.13-10.25-4.17,0-8.45.05-12.74.11l-6.16.1-3.37.09A109.78,109.78,0,0,1,121.42.49C119.05-.5,92.94.24,90.64.71Z"/><path class="cls-2" d="M52.21,2h.1C52.31,1.62,52.16,1.78,52.21,2Z"/><path class="cls-2" d="M106.14,13.51H106l.64.59Z"/><path class="cls-2" d="M71.59,13.86c1.56.13,1.63,0,1.41-.14A3.74,3.74,0,0,0,71.59,13.86Z"/><path class="cls-2" d="M39.53,2.84c-.82,0-.51.22,0,.5l1.41-.08C40.46,3.16,40,2.94,39.53,2.84Z"/><path class="cls-2" d="M42.86,8.54l-.26.34C43.08,8.79,43.06,8.67,42.86,8.54Z"/><text class="cls-3" transform="translate(0.5 77.5)"><tspan xml:space="preserve">    G</tspan></text></g></g></svg>